<?xml version="1.0" encoding="UTF-8"?>
<svg width="1024px" height="1024px" viewBox="0 0 1024 1024" version="1.1" xmlns="http://www.w3.org/2000/svg" xmlns:xlink="http://www.w3.org/1999/xlink">
    <!-- Generator: Sketch 54.1 (76490) - https://sketchapp.com -->
    <title>Icon</title>
    <desc>Created with Sketch.</desc>
    <g id="Icon" stroke="none" stroke-width="1" fill="none" fill-rule="evenodd">
        <rect fill="#FFFFFF" x="0" y="0" width="1024" height="1024"></rect>
        <rect id="Rectangle" fill="#FE54A1" x="0" y="0" width="1024" height="1024" rx="32"></rect>
        <g id="Logo-Split" transform="translate(67.000000, 134.000000)" stroke="#FFFFFF" stroke-linecap="round" stroke-linejoin="round" stroke-width="24">
            <g id="paint" transform="translate(0.000000, 379.000000)">
                <path d="M0,304.991215 C62.9136583,246.893476 45.8561577,207.830723 53.9786489,171.11674 C63.058943,198.790786 14.9670151,334.091203 15.3382982,381.47016 C18.800917,329.089643 52.9831796,192.306783 67.3851987,169.273777 C81.7872177,146.24077 149.183815,120.379843 149.115917,197.942999 C149.07556,244.044281 82.6427832,295.127998 47.2794097,263.881024 C98.3146981,300.947457 147.633475,284.654047 204.507056,205.69181 C261.380637,126.729572 325.548049,136.65532 344.989294,187.103764 C322.031621,135.895961 231.766771,153.499624 210.913035,211.473603 C190.059299,269.447581 249.784765,311.644717 290.459102,276.160272 C312.629761,256.818506 328.023269,233.242094 320.2048,179.34685 C333.605969,235.870671 297.639933,293.885007 358.823627,299.989655 C420.007321,306.094303 421.17498,196.103019 429.367423,152.453036 C425.490473,188.919497 407.668459,314.677384 447.245513,277.855261 C469.005933,257.609568 512.946485,100.352327 522.110183,133.851213 C531.273882,167.3501 526.159322,252.274391 526.065156,276.160272 C530.421007,219.695641 583.624804,109.491811 612.364271,133.851213 C641.103738,158.210615 616.498854,290.544122 656.267156,294.96388 C723.735759,302.462185 838.739365,82.9692809 805.119408,4.11466189 C788.104677,-35.7928886 683.263207,226.873781 773.094893,261.91699 C819.779141,280.128448 864.296021,226.860329 909.541445,200.162919"></path>
                <path d="M667.645537,109.773512 C704.455813,168.10613 763.966915,66.1603826 884.745289,80.5332587" id="t"></path>
                <path d="M436.926322,98.8412859 C416.472702,101.894531 418.834237,77.2602729 433.310683,78.1672205 C447.787128,79.0741681 443.008513,91.9337301 435.184462,90.2986208" id="i"></path>
            </g>
            <path d="M26,338.741164 C98.129052,234.584577 184.751011,-34.2946367 150.397453,3.63741669 C116.043896,41.5694701 18.1273097,292.343732 115.070992,323.118794 C212.014675,353.893857 230.186722,179.6994 124.140242,222.417692 C136.414148,219.412311 151.134323,210.327092 179.295582,223.383993 C224.262347,244.232728 327.113268,164.34409 294.076859,50.372648 C273.873758,-19.3254983 187.22241,275.87147 267.805657,323.118794 C348.388905,370.366119 328.69258,187.388055 416.141266,203.643938 C317.94142,182.986429 330.465714,378.813822 439.595812,332.154496 C489.91155,310.641655 464.610271,207.117348 422.313228,210.055353 C455.610614,209.291257 433.386193,264.355728 539.63713,200.331664 C572.789109,180.355139 591.365061,182.159616 617.450787,222.417692 C581.6946,153.641359 464.724982,222.440418 537.506149,308.300937 C621.884996,407.843333 768.937975,146.428611 756.984782,49.9260282 C740.4064,-83.9174197 670.606907,151.265665 676.022543,323.118794 C674.568779,225.44823 757.969497,123.795859 793.464296,200.331664 C810.308604,236.652273 758.695927,266.687276 740.838045,248.38415 C732.675408,281.466641 779.872104,353.464591 836.76,318.232606" id="block"></path>
        </g>
    </g>
</svg>