<?xml version="1.0" encoding="UTF-8"?>
<svg width="24px" height="24px" viewBox="0 0 24 24" version="1.1" xmlns="http://www.w3.org/2000/svg" xmlns:xlink="http://www.w3.org/1999/xlink">
    <!-- Generator: Sketch 54.1 (76490) - https://sketchapp.com -->
    <title>erase</title>
    <desc>Created with Sketch.</desc>
    <g id="Welcome" stroke="none" stroke-width="1" fill="none" fill-rule="evenodd">
        <g id="Desktop" transform="translate(-242.000000, -112.000000)" fill="#000000" fill-rule="nonzero">
            <g id="erase" transform="translate(242.000000, 112.000000)">
                <rect id="Rectangle" opacity="0.01" x="0" y="0" width="24" height="24"></rect>
                <path d="M19,20 L5,20 C4.44771525,20 4,20.4477153 4,21 C4,21.5522847 4.44771525,22 5,22 L19,22 C19.5522847,22 20,21.5522847 20,21 C20,20.4477153 19.5522847,20 19,20 Z" id="Path"></path>
                <path d="M5,18 L5.09,18 L9.26,17.62 C9.71679646,17.5744954 10.1440349,17.3732343 10.47,17.05 L19.47,8.05 C20.19729,7.2816618 20.1659864,6.06976648 19.4,5.34 L16.66,2.6 C15.9197239,1.90465395 14.7758233,1.8745513 14,2.53 L5,11.53 C4.67676568,11.8559651 4.4755046,12.2832035 4.43,12.74 L4,16.91 C3.97272602,17.2065447 4.07903692,17.4998162 4.29,17.71 C4.47871883,17.8971865 4.73419702,18.0015368 5,18 Z M15.27,4 L18,6.73 L16,8.68 L13.32,6 L15.27,4 Z M6.37,12.91 L12,7.32 L14.7,10.02 L9.1,15.62 L6.1,15.9 L6.37,12.91 Z" id="Shape" transform="translate(11.995708, 10.028887) rotate(-180.000000) translate(-11.995708, -10.028887) "></path>
            </g>
        </g>
    </g>
</svg>