<svg width="880" height="205" xmlns="http://www.w3.org/2000/svg">
  <g stroke="#FFF" stroke-width="12" fill="none" fill-rule="evenodd" stroke-linecap="round" stroke-linejoin="round">
    <path d="M6.277 175.874C42.341 123.796 85.652-10.643 68.475 8.324 51.3 27.288 2.341 152.674 50.812 168.062c48.472 15.387 57.558-71.71 4.535-50.35 6.137-1.503 13.497-6.046 27.577.483 22.483 10.424 73.908-29.52 57.39-86.505-10.101-34.849-53.426 112.748-13.135 136.372 40.291 23.623 30.443-67.865 74.167-59.737-49.1-10.329-42.837 87.584 11.727 64.254 25.158-10.756 12.507-62.518-8.64-61.049 16.648-.382 5.535 27.15 58.66-4.861 16.576-9.989 25.864-9.086 38.907 11.043-17.878-34.388-76.362.01-39.972 42.94 42.19 49.772 115.715-80.935 109.738-129.186-8.289-66.92-43.188 50.67-40.48 136.596-.727-48.835 40.973-99.661 58.72-61.393 8.422 18.16-17.384 33.177-26.313 24.026-4.414 17.891 23.554 58.547 55.011 29.498 31.457-29.05 22.928-48.58 26.99-66.938 4.54 13.838-19.506 81.488-19.32 105.177 1.73-26.19 18.822-94.581 26.023-106.098 7.2-11.516 40.899-24.447 40.865 14.335-.02 23.05-33.236 48.592-50.918 32.969 25.517 18.533 50.177 10.386 78.614-29.095 28.436-39.481 60.52-34.518 70.24-9.294-11.478-25.604-56.61-16.802-67.037 12.185-10.427 28.987 19.436 50.085 39.773 32.343 11.085-9.67 18.782-21.459 14.873-48.406 6.7 28.261-11.283 57.269 19.309 60.32 30.592 3.053 31.176-51.942 35.272-73.767-1.939 18.233-10.85 81.112 8.939 62.7 10.88-10.122 32.85-88.75 37.432-72.001 4.582 16.75 2.025 59.211 1.978 71.154 2.178-28.232 28.78-83.334 43.15-71.154 14.369 12.18 2.067 78.346 21.95 80.556 33.735 3.75 91.237-105.997 74.427-145.425-8.508-19.953-60.928 111.38-16.012 128.902 23.342 9.105 45.6-17.529 68.223-30.877M752.527 62.585c18.405 29.166 48.16-21.807 108.55-14.62"/>
    <path d="M637.167 58.119c-10.227 1.526-9.046-10.79-1.808-10.337 7.239.453 4.85 6.883.937 6.065"/>
  </g>
</svg>
