<?xml version="1.0" encoding="UTF-8"?>
<svg width="880px" height="205px" viewBox="0 0 880 205" version="1.1" xmlns="http://www.w3.org/2000/svg" xmlns:xlink="http://www.w3.org/1999/xlink">
    <!-- Generator: Sketch 54.1 (76490) - https://sketchapp.com -->
    <title>Logo</title>
    <desc>Created with Sketch.</desc>
    <g id="Welcome" stroke="none" stroke-width="1" fill="none" fill-rule="evenodd" stroke-linecap="round" stroke-linejoin="round">
        <g id="Desktop" transform="translate(-73.000000, -298.000000)" stroke="#FFFFFF" stroke-width="12">
            <g id="Logo" transform="translate(79.277128, 304.504640)">
                <path d="M-1.70530257e-13,169.369138 C36.0642185,117.291288 79.3748287,-17.1471721 62.1981963,1.81869284 C45.0215639,20.7845578 -3.9363116,146.17062 44.5351163,161.55802 C93.0065442,176.945419 102.092491,89.848934 49.0697025,111.207897 C55.206603,109.70522 62.566628,105.162649 76.6471373,111.691044 C99.1303281,122.115323 150.55535,82.1713444 134.037286,25.1861092 C123.935822,-9.66266675 80.6105174,137.934559 120.901798,161.55802 C161.193078,185.18148 151.345,93.6932287 195.06897,101.821101 C145.969465,91.4924344 152.231559,189.405296 206.796143,166.075832 C231.953797,155.319503 219.303266,103.557791 198.154924,105.026781 C214.803475,104.644736 203.691359,132.176737 256.816375,100.164978 C273.392223,90.1768007 282.68012,91.0790314 295.722872,111.207897 C277.84493,76.8200244 219.36062,111.219261 255.750893,154.149154 C297.939958,203.919927 371.46582,73.2136812 365.489274,24.9628012 C357.200154,-41.958352 322.300705,75.6321874 325.0085,161.55802 C324.281624,112.723154 365.981628,61.8974019 383.728876,100.164978 C392.150958,118.325128 366.34484,133.342501 357.415975,124.191016 C353.001516,142.082452 380.970167,182.737955 412.426996,153.689086 C443.883825,124.640216 435.355075,105.10884 439.41632,86.7518483 C443.956467,100.588871 419.910503,168.23908 420.096145,191.928558 C421.827454,165.7383 438.918586,97.34687 446.119595,85.8303666 C453.320605,74.3138633 487.018903,61.3833995 486.984954,100.164978 C486.964776,123.215619 453.748387,148.757477 436.066701,133.13399 C461.584345,151.667207 486.243733,143.520502 514.680524,104.039383 C543.117314,64.5582643 575.20102,69.5211384 584.921643,94.7453601 C573.442806,69.1414587 528.310381,77.9432904 517.883513,106.93028 C507.456645,135.917269 537.319378,157.015837 557.656547,139.273614 C568.741876,129.602731 576.438631,117.814525 572.529396,90.8669031 C579.22998,119.128814 561.246962,148.135982 591.838809,151.188306 C622.430656,154.24063 623.014486,99.2449877 627.110707,77.4199965 C625.172233,95.653227 616.261225,158.53217 636.049752,140.121109 C646.929962,129.998262 668.900238,51.3696417 673.482087,68.1190849 C678.063937,84.8685281 675.506657,127.330674 675.459574,139.273614 C677.637499,111.041299 704.239398,55.9393837 718.609131,68.1190849 C732.978865,80.298786 720.676423,146.465539 740.560574,148.675418 C774.294875,152.424571 831.796678,42.6781187 814.9867,3.25080918 C806.479334,-16.7029661 754.058599,114.630369 798.974442,132.151973 C822.316567,141.257702 844.575006,114.623643 867.197718,101.274938" id="Path"></path>
                <path d="M746.249764,56.0802341 C764.654902,85.2465432 794.410453,34.2736695 854.79964,41.4601076" id="Path-2"></path>
                <path d="M630.890157,51.6141212 C620.663347,53.1407439 621.844114,40.8236147 629.082337,41.2770885 C636.32056,41.7305623 633.931252,48.1603433 630.019227,47.3427886" id="Path-3"></path>
            </g>
        </g>
    </g>
</svg>
